<?xml version="1.0" standalone="no"?>
<!DOCTYPE svg PUBLIC "-//W3C//DTD SVG 20010904//EN"
 "http://www.w3.org/TR/2001/REC-SVG-20010904/DTD/svg10.dtd">
<svg version="1.0" xmlns="http://www.w3.org/2000/svg"
 width="1221.000000pt" height="1280.000000pt" viewBox="0 0 1221.000000 1280.000000"
 preserveAspectRatio="xMidYMid meet">
<metadata>
Created by potrace 1.15, written by Peter Selinger 2001-2017
</metadata>
<g transform="translate(0.000000,1280.000000) scale(0.100000,-0.100000)"
fill="#000000" stroke="none">
<path d="M2465 12794 c-69 -7 -793 -62 -961 -73 -89 -6 -198 -16 -243 -23
l-81 -11 0 -141 c0 -116 -4 -152 -20 -199 -24 -68 -25 -125 -5 -195 18 -60 49
-99 124 -158 l55 -43 -2 -348 c-1 -191 -7 -818 -13 -1393 -11 -1126 -12 -1030
57 -3865 12 -474 16 -948 15 -1565 -6 -2045 -6 -2067 29 -2905 24 -575 71
-1585 76 -1632 l5 -53 255 0 254 0 -6 44 -6 44 187 249 c203 267 330 427 410
515 l51 55 1269 7 c699 3 1493 10 1765 14 643 9 2742 9 3389 -1 l504 -7 51
-48 c73 -68 187 -195 405 -452 l191 -225 0 -97 0 -98 250 0 c192 0 252 3 254
13 3 6 14 237 25 512 12 275 24 535 27 578 6 75 7 77 33 77 42 0 125 44 170
91 75 78 90 127 66 221 -27 107 -93 179 -198 216 l-49 17 6 90 c28 431 39
1619 18 2105 -7 168 -17 577 -22 910 -12 792 -12 4186 0 4680 10 428 37 1576
48 2055 l7 310 131 3 132 3 6 42 c3 23 10 139 17 257 6 118 12 220 12 225 1 6
-11 11 -28 13 -16 2 -228 33 -470 68 l-440 65 -430 -12 c-647 -18 -1906 -16
-2745 4 -1396 33 -4451 74 -4575 61z m1635 -674 c355 -5 836 -12 1070 -16 234
-4 1253 -10 2265 -13 l1840 -6 3 -1366 2 -1366 -222 -6 c-123 -4 -504 -12
-848 -17 -344 -6 -807 -15 -1030 -20 -1283 -30 -1675 -33 -2770 -21 -602 6
-1184 14 -1292 18 l-198 6 0 1414 0 1414 268 -5 c147 -4 557 -11 912 -16z
m5166 -3508 c8 -5 13 -385 17 -1357 l5 -1350 -972 0 c-995 -1 -966 0 -1816
-47 -159 -9 -650 -13 -1685 -13 -1629 0 -1801 -5 -1862 -51 l-33 -25 0 1374 0
1375 718 6 c1065 9 2331 26 2722 36 190 5 480 12 645 15 165 3 341 7 390 10
86 5 334 9 1295 25 239 3 464 7 500 8 36 1 70 -2 76 -6z m26 -5642 l3 -825
-75 -2 c-41 -2 -145 -8 -230 -13 -85 -6 -372 -14 -636 -17 -504 -6 -698 1
-1059 37 -104 10 -266 23 -360 29 -193 12 -1923 26 -3130 26 l-810 0 -37 -23
-38 -24 0 1260 0 1261 1618 -1 c889 0 1871 5 2182 11 311 6 1013 14 1560 17
547 4 997 9 1000 11 5 5 8 -434 12 -1747z"/>
</g>
</svg>
